<?xml version="1.0" encoding="utf-8"?>
<!-- Generator: Adobe Illustrator 23.0.1, SVG Export Plug-In . SVG Version: 6.00 Build 0)  -->
<svg version="1.1" id="Layer_1" xmlns="http://www.w3.org/2000/svg" xmlns:xlink="http://www.w3.org/1999/xlink" x="0px" y="0px"
	 viewBox="0 0 1000 1000" style="enable-background:new 0 0 1000 1000;" xml:space="preserve">
<style type="text/css">
	.st0{fill:#FDCD08;}
	.st1{fill:#EC1C24;}
	.st2{fill:#234090;}
	.st3{fill:#231F20;}
</style>
<g>
	<g>
		<path class="st0" d="M497,260.9c-150.3,0-272.2,125.7-272.2,280.8S346.7,822.6,497,822.6c150.3,0,272.1-125.8,272.1-280.9
			S647.2,260.9,497,260.9 M497,750.7c-108.9,0-197.1-91.1-197.1-203.5c0-112.4,88.2-203.4,197.1-203.4
			c108.8,0,197.1,91.1,197.1,203.4C694.1,659.6,605.8,750.7,497,750.7"/>
		<path class="st0" d="M678.8,547.3c0,75.7-43.4,140.9-106,170.6c-4.3,2-8.7,3.9-13.1,5.6c-19.5,7.4-40.6,11.4-62.7,11.4h-0.3
			c-0.7,0-1.5,0-2.2,0c-20.6-0.3-40.3-4.1-58.6-10.8c-4.2-1.6-8.3-3.2-12.3-5.1c-63.8-29.1-108.4-95-108.4-171.7
			c0-61.5,28.7-116.1,73-150.3c3.7-2.9,7.5-5.6,11.4-8.1c27.5-18.1,60-28.7,94.8-29.1c0.7-0.1,1.5-0.1,2.2-0.1h0.3
			c35,0,67.7,10.2,95.4,27.9c3.9,2.5,7.8,5.2,11.5,8C649.3,429.6,678.8,484.9,678.8,547.3"/>
		<path class="st1" d="M575,490.3c5,19.9,7.2,41.4,5.1,64c-1.9,19.7-5.8,38.1-11,55.2c-7.4,24.5-17.4,46.1-27.6,64.2l31.3,44.3
			c-4.3,2-8.7,3.9-13.1,5.6l-26-36.7c-16.9,27-32.8,43.9-37,48.2c-0.7,0.7-1.1,1.1-1.1,1.1s-0.4-0.4-1.1-1.1
			c-4-4.2-18.5-19.9-34.6-44.7l-24,33.9c-4.2-1.6-8.3-3.2-12.3-5.1l-0.7-0.6l29.1-41.2c-11.1-18.8-22.1-41.5-30.3-67.4
			c-5.5-17.2-9.7-35.8-11.8-55.5c-2.4-22.6-0.1-44.3,5.2-64.5c3.3-12.9,7.8-25.2,13-36.7l-39.7-56.2l11.4-8.1l35.3,49.9
			c22.8-43.4,53.3-73.2,59.5-79.1c0.7-0.7,1.1-1.1,1.1-1.1s0.4,0.4,1.1,1c6,5.6,36.5,35.5,59.1,79.8l36.7-51.9
			c3.9,2.5,7.8,5.2,11.5,8L562.6,454C567.5,465.4,571.8,477.5,575,490.3L575,490.3z"/>
		<path class="st2" d="M580,554.3c-1.9,19.7-5.8,38.1-11,55.2c-17.1-9.8-29-32.2-29-58.2c0-28.8,14.7-53.2,34.9-61
			C579.9,510.3,582.2,531.7,580,554.3"/>
		<path class="st2" d="M451.1,551.3c0,26.3-12.2,48.8-29.6,58.5c-5.5-17.2-9.7-35.8-11.8-55.5c-2.4-22.6-0.1-44.3,5.2-64.5
			C435.7,497,451.1,521.8,451.1,551.3"/>
		<path class="st2" d="M511.6,549.8c0,9.6-7.5,17.4-16.8,17.4s-16.8-7.8-16.8-17.4s7.5-17.4,16.8-17.4S511.6,540.2,511.6,549.8"/>
		<path class="st0" d="M519.6,642c0,25.8-5.7,50.1-15.9,71.8V570.2C513.9,591.9,519.6,616.2,519.6,642"/>
		<path class="st0" d="M471.6,642c0,25.8,5.7,50.1,15.9,71.8V570.2C477.3,591.9,471.6,616.2,471.6,642"/>
		<path class="st0" d="M519.6,453.3c0,25.8-5.7,50.1-15.9,71.8V381.5C513.9,403.2,519.6,427.5,519.6,453.3"/>
		<path class="st0" d="M471.6,453.3c0,25.8,5.7,50.1,15.9,71.8V381.5C477.3,403.2,471.6,427.5,471.6,453.3"/>
		<path class="st0" d="M238.7,832.2c0,0,23.1,34.6,19.2,65.4c0,0,77.5-9.1,134.7,25c35.3,21,86.7,23,130.4,18.7
			c29.7-2.9,58.7-10.8,86-22.8c17.7-7.8,41.8-16,64.6-16H742c0,0-11.5-34.6,0-52c11.5-17.3,8.7-18.3,8.7-18.3s-59.7-23.1-153,11.5
			c-37.9,14.1-71.4,19.9-97.8,21.8c-31.3,2.3-62.7-4.1-91.1-17.6c-23.1-10.9-55.1-23.8-76.8-23.3
			C294.5,825.5,252.2,825.5,238.7,832.2"/>
		<path class="st2" d="M293.7,856.8l14.5,16.5c2.4,2.7,4.4,4.6,6.2,5.7c1.7,1,3.5,1.7,5.3,1.9l-0.1,1.2l-20.1-1.3l0.1-1.2
			c1.2,0.1,2.1-0.1,2.6-0.4c0.6-0.4,0.8-0.8,0.9-1.3c0-0.5,0-1-0.2-1.4c-0.2-0.4-0.8-1.2-1.8-2.3l-13.6-15.4l-0.9,13.6
			c-0.1,2.1-0.1,3.6,0.1,4.3c0.2,0.5,0.6,1,1.2,1.4c0.9,0.6,1.8,0.9,2.8,0.9l1.4,0.1l-0.1,1.2l-18-1.2l0.1-1.2l1.5,0.1
			c1.7,0.1,3-0.3,3.9-1.3c0.5-0.6,0.9-2.2,1.1-4.7l1.8-27.3c0.1-2.1,0.1-3.6-0.1-4.3c-0.2-0.5-0.6-1-1.2-1.4
			c-0.9-0.6-1.8-0.9-2.8-0.9l-1.5-0.1l0.1-1.2l18,1.2l-0.1,1.2l-1.4-0.1c-1-0.1-1.9,0.1-2.9,0.5c-0.7,0.3-1.1,0.8-1.4,1.4
			c-0.3,0.6-0.5,2-0.6,4.1l-0.9,12.9c0.4-0.4,2-1.6,4.5-3.7c6.5-5.2,10.5-8.8,11.9-10.6c0.6-0.8,0.9-1.5,1-2.1
			c0-0.5-0.2-0.9-0.6-1.3c-0.4-0.4-1.1-0.6-2.2-0.7l-1-0.1l0.1-1.2l15.5,1l-0.1,1.2c-0.9,0-1.8,0-2.5,0.2c-0.8,0.2-1.7,0.6-2.8,1.1
			c-1.1,0.6-2.5,1.5-4.2,2.9c-0.5,0.4-2.7,2.4-6.7,6L293.7,856.8z"/>
		<path class="st2" d="M339.5,845.9l-3.7,16.3l9.1,2.1c2.3,0.5,4,0.5,5,0c1.3-0.7,2.2-2.2,2.9-4.5l1.1,0.3l-3.3,14.4l-1.1-0.3
			c0.2-2.1,0.2-3.4,0-4.1c-0.2-0.8-0.7-1.5-1.4-2.1c-0.7-0.6-2-1.1-3.7-1.5l-9.1-2.1l-3.1,13.6c-0.4,1.8-0.6,3-0.5,3.4
			c0.1,0.4,0.3,0.8,0.6,1.1c0.4,0.3,1.1,0.6,2.2,0.9l7,1.6c2.3,0.5,4.1,0.8,5.2,0.7c1.1-0.1,2.3-0.5,3.5-1.2c1.5-1,3.3-2.6,5.2-4.8
			l1.2,0.3l-5.9,9.5l-31.8-7.3l0.3-1.1l1.5,0.3c1,0.2,2,0.2,2.9-0.1c0.7-0.2,1.3-0.6,1.7-1.2c0.4-0.6,0.8-1.9,1.3-3.9l6.1-26.8
			c0.6-2.6,0.7-4.3,0.3-5c-0.5-1-1.7-1.7-3.4-2.1l-1.5-0.3l0.3-1.1l31.8,7.3l-1.6,9.1l-1.2-0.3c0.1-2.3-0.1-3.9-0.4-4.8
			c-0.3-0.9-1-1.7-1.9-2.4c-0.7-0.5-2.1-1-4.2-1.4L339.5,845.9z"/>
		<path class="st2" d="M371,850.7l10.4,4.9l9.9,39.7l10.4-22.1c1.1-2.4,1.5-3.9,1.3-4.8c-0.3-1.1-1.2-2-2.7-2.7l-1.3-0.6l0.5-1
			l13.3,6.3l-0.5,1l-1.4-0.6c-1.6-0.8-3-0.8-4.1-0.2c-0.7,0.4-1.6,1.7-2.6,3.8L389,906.7l-1-0.5l-10.7-42.7L366.2,887
			c-1.1,2.4-1.5,3.9-1.3,4.8c0.3,1.1,1.3,2,2.7,2.7l1.4,0.6l-0.5,1l-13.3-6.3l0.5-1l1.3,0.6c1.6,0.8,3,0.8,4.2,0.2
			c0.7-0.4,1.6-1.7,2.6-3.8l12.5-26.6c-0.5-1.8-0.9-3.1-1.3-3.8c-0.4-0.7-1-1.5-2-2.3c-0.5-0.4-1.3-0.9-2.4-1.4L371,850.7z"/>
		<path class="st2" d="M440.6,880.9l14.3,3.6l-0.3,1.1l-0.8-0.2c-0.5-0.1-1.4-0.1-2.5,0.1c-1.1,0.2-2.2,0.6-3.3,1.3
			c-1,0.7-2.4,1.8-4.1,3.5l-13.8,13.1l-2.6,10.3c-0.6,2.5-0.8,4.2-0.3,4.9c0.6,1,1.7,1.8,3.3,2.2l1.3,0.3l-0.3,1.1l-17.4-4.4
			l0.3-1.1l1.5,0.4c1.7,0.4,3.1,0.2,4.1-0.6c0.6-0.5,1.2-2,1.8-4.3l2.4-9.7l-6.9-20c-0.8-2.4-1.4-3.8-1.8-4.5
			c-0.3-0.6-1.2-1.5-2.5-2.6c-0.4-0.3-0.9-0.6-1.7-0.7l0.3-1.1l17.6,4.4l-0.3,1.1l-0.9-0.2c-0.9-0.2-1.9-0.2-2.8,0
			c-0.9,0.2-1.5,0.8-1.7,1.7c-0.2,0.7,0.1,2.2,0.9,4.4l5.2,15.4l11.2-10.6c1.7-1.6,2.6-2.9,2.9-3.8c0.1-0.6,0.1-1.1-0.1-1.6
			c-0.2-0.5-0.5-1-1-1.4c-0.5-0.4-1.3-0.7-2.4-1L440.6,880.9z"/>
		<path class="st2" d="M474,912.3l-16.4-0.8l-3.2,6.5c-0.8,1.6-1.2,2.8-1.2,3.6c0,0.6,0.3,1.2,0.8,1.7c0.6,0.5,1.9,0.9,3.9,1.1
			l-0.1,1.2l-13.3-0.6l0.1-1.2c1.8-0.2,2.9-0.6,3.5-1.1c1.1-1,2.4-2.9,3.8-5.9l16.5-34.1l1.1,0.1l13.1,35.9c1.1,2.9,2,4.8,3,5.7
			c0.9,0.9,2.3,1.4,4,1.6l-0.1,1.2l-16.7-0.8l0.1-1.2c1.7,0,2.8-0.2,3.5-0.7c0.6-0.5,0.9-1,1-1.7c0-0.9-0.3-2.4-1-4.4L474,912.3z
			 M473.2,910l-6.4-17.4l-8.2,16.7L473.2,910z"/>
		<path class="st2" d="M518,904.8l1.5,12.2c0.3,2.6,0.8,4.3,1.5,4.8c0.9,0.8,2.1,1.1,3.7,0.9l1.6-0.2l0.1,1.1l-18,2.3l-0.1-1.1
			l1.6-0.2c1.8-0.2,3-1,3.6-2.2c0.3-0.7,0.4-2.2,0-4.6l-3.4-27.1c-0.3-2.6-0.8-4.3-1.5-4.8c-0.9-0.8-2.2-1.1-3.8-0.9l-1.6,0.2
			l-0.1-1.1l15.4-1.9c3.8-0.5,6.8-0.5,9,0c2.3,0.5,4.3,1.6,6,3.2c1.7,1.7,2.7,3.7,3,6.3c0.4,3.4-0.4,6.4-2.3,8.8
			c-2,2.4-5.1,3.9-9.2,4.4c-1,0.1-2.1,0.2-3.3,0.2C520.6,904.9,519.3,904.9,518,904.8 M517.7,903c1.1,0.1,2.1,0.1,3,0.1
			c0.9,0,1.6,0,2.2-0.1c2.1-0.3,3.9-1.3,5.2-3.2c1.3-1.9,1.9-4.1,1.5-6.8c-0.2-1.8-0.8-3.5-1.7-4.9c-0.9-1.5-2.1-2.5-3.6-3.1
			c-1.5-0.6-3.1-0.8-4.8-0.6c-1.1,0.1-2.4,0.5-4,1.1L517.7,903z"/>
		<path class="st2" d="M557.3,872.9c5.3-1.6,10.4-0.9,15.5,1.9c5,2.9,8.5,7.3,10.2,13.3c1.8,6.2,1.4,11.9-1.3,17.1
			c-2.7,5.2-6.8,8.7-12.3,10.3c-5.6,1.7-10.9,1.1-15.8-1.8c-5-2.8-8.4-7.4-10.3-13.7c-1.9-6.4-1.3-12.4,1.9-17.7
			C548,877.6,552,874.5,557.3,872.9 M557.4,875.3c-3.6,1.1-6.1,3.3-7.5,6.6c-1.7,4.2-1.6,9.5,0.3,15.9c2,6.6,4.9,11.3,8.8,14
			c3,2.1,6.3,2.6,9.8,1.5c3.8-1.1,6.5-3.6,8.1-7.3c1.6-3.7,1.4-8.8-0.5-15.2c-2.1-6.9-5-11.7-8.7-14.3
			C564.7,874.6,561.3,874.1,557.4,875.3"/>
		<path class="st2" d="M623.2,881.4l1-0.2l0.9,12l-30.5,12.1l-0.4-1.1l1.5-0.6c1.7-0.7,2.6-1.7,2.9-3c0.2-0.8-0.2-2.3-1.1-4.5
			l-10.1-25.4c-1-2.5-1.9-3.9-2.6-4.3c-1.1-0.6-2.4-0.5-3.9,0.1l-1.5,0.6L579,866l17.8-7.1l0.4,1.1c-2.1,0.8-3.5,1.6-4.2,2.3
			c-0.7,0.7-1.1,1.5-1.1,2.2c-0.1,0.7,0.4,2.3,1.3,4.6l9.8,24.7c0.6,1.6,1.2,2.7,1.8,3.1c0.4,0.3,0.9,0.5,1.4,0.5
			c0.6,0,2.1-0.5,4.6-1.5l2.9-1.1c3-1.2,5.1-2.3,6.1-3.2c1-0.9,1.8-2.2,2.4-3.7C622.8,886.4,623.1,884.2,623.2,881.4"/>
		<path class="st2" d="M647.4,886.4l0.3,1.1l-17.6,4.3l-0.3-1.1l1.5-0.4c1.7-0.4,2.8-1.2,3.3-2.4c0.3-0.8,0.2-2.4-0.4-4.8l-6.4-26.6
			c-0.5-2.1-1-3.4-1.4-4c-0.3-0.5-0.8-0.8-1.6-1c-1-0.3-2-0.3-3-0.1l-1.5,0.4l-0.3-1.1l17.6-4.3l0.3,1.1l-1.5,0.4
			c-1.7,0.4-2.8,1.2-3.3,2.4c-0.3,0.8-0.2,2.4,0.4,4.9l6.4,26.6c0.5,2.1,1,3.4,1.4,4c0.3,0.5,0.9,0.8,1.6,1c1,0.3,2,0.3,2.9,0.1
			L647.4,886.4z"/>
		<path class="st2" d="M683.9,841.9l1.5,14.4l-1,0c-1.4-4.3-3.4-7.3-5.8-9.1c-2.5-1.8-5.4-2.7-8.7-2.5c-2.8,0.1-5.3,0.9-7.5,2.4
			c-2.2,1.5-3.9,3.8-5.1,7c-1.2,3.2-1.7,7.1-1.5,11.7c0.1,3.8,0.9,7.1,2.2,9.9c1.3,2.8,3.2,4.9,5.8,6.3c2.5,1.4,5.4,2.1,8.5,2
			c2.7-0.1,5.1-0.8,7.2-2c2.1-1.2,4.3-3.7,6.7-7.2l1,0.6c-2,3.8-4.4,6.7-7.1,8.5c-2.8,1.8-6.1,2.8-10,3c-7,0.2-12.5-2.2-16.6-7.2
			c-3-3.8-4.6-8.3-4.8-13.5c-0.1-4.2,0.7-8.1,2.4-11.7c1.8-3.6,4.3-6.4,7.5-8.5c3.2-2.1,6.8-3.2,10.8-3.3c3.1-0.1,6.1,0.5,9.1,1.9
			c0.9,0.4,1.5,0.6,1.9,0.6c0.6,0,1-0.2,1.4-0.6c0.5-0.6,0.9-1.4,1.1-2.4L683.9,841.9z"/>
		<path class="st2" d="M702.5,845.7v16.7h9.3c2.4,0,4-0.4,4.8-1.1c1.1-1,1.7-2.6,1.8-5.1h1.2V871h-1.2c-0.3-2.1-0.6-3.4-0.9-4
			c-0.4-0.7-1-1.3-1.8-1.7c-0.9-0.4-2.2-0.6-3.9-0.6h-9.3v14c0,1.9,0.1,3,0.3,3.4c0.2,0.4,0.5,0.7,0.9,1c0.4,0.2,1.2,0.4,2.4,0.4
			h7.2c2.4,0,4.1-0.2,5.2-0.5c1.1-0.3,2.1-1,3.1-2c1.3-1.3,2.6-3.2,4-5.8h1.2l-3.7,10.6h-32.6v-1.2h1.5c1,0,1.9-0.2,2.8-0.7
			c0.7-0.3,1.1-0.8,1.4-1.5c0.2-0.7,0.4-2,0.4-4.1v-27.5c0-2.7-0.3-4.3-0.8-5c-0.7-0.8-2-1.2-3.7-1.2h-1.5v-1.2h32.6l0.5,9.3h-1.2
			c-0.4-2.2-0.9-3.8-1.5-4.6c-0.5-0.8-1.3-1.5-2.4-1.9c-0.8-0.3-2.3-0.5-4.4-0.5H702.5z"/>
		<path class="st0" d="M634.4,920.1c0,0,75.7-21.8,107.8-4.5c32.1,17.3-12.2,25.7-23.1,27.6C708.2,945.1,667.8,945.8,634.4,920.1"/>
		<polygon class="st1" points="658.2,909 676.8,909 711.3,974.8 695.9,982.7 		"/>
		<path class="st0" d="M364,920.1c0,0-75.7-21.8-107.8-4.5c-32.1,17.3,12.2,25.7,23.1,27.6C290.2,945.1,330.7,945.8,364,920.1"/>
		<polygon class="st1" points="340.3,909 321.7,909 287.2,974.8 302.6,982.7 		"/>
		<path class="st0" d="M666.6,809.8h100.7c0,0-12.1-38.1-8.9-43.5c3.9-6.7,17.8-11.5,16.6-5.2c-2.9,15.6-6.7,2-6.7,2
			s-4.5,8.1-2.3,13.6c4.9,12.3,39.2-5,32.8-19.6c-6.4-14.6-19.2-33.2-53.9-24.9C710.2,740.5,666.6,809.8,666.6,809.8"/>
		<path class="st0" d="M805.2,769.9L805.2,769.9c-7.6,12.2-17.4,17.5-31.8,17l-7.5-1.2l28.2,51.1l34.5-18.3L805.2,769.9z"/>
		<path class="st0" d="M333.4,809.8H232.7c0,0,12.1-38.1,8.9-43.5c-3.9-6.7-17.8-11.5-16.6-5.2c2.9,15.6,6.7,2,6.7,2
			s4.5,8.1,2.3,13.6c-4.9,12.3-39.2-5-32.8-19.6c6.4-14.6,19.2-33.2,53.9-24.9C289.8,740.5,333.4,809.8,333.4,809.8"/>
		<path class="st0" d="M194.8,769.9L194.8,769.9c7.6,12.2,17.4,17.5,31.8,17l7.5-1.2l-28.2,51.1l-34.5-18.3L194.8,769.9z"/>
		<path class="st0" d="M674,185.4l-9.5,11.6l-0.4,0.5l-0.3,0.4l-0.4,0.5l0,0l-0.8,0.9l0,0l-0.7,0.9l-0.1,0l-0.8,1l0,0l-0.8,0.9l0,0
			l-0.7,0.9l0,0l-0.8,1l0,0l-0.8,1l0,0l-1.1,1.4l-16.1,19.6c-37-20.8-88.2-33.6-144.8-33.6c-57.9,0-110.2,13.4-147.3,35.1
			l-13.3-16.1l-1.1-1.3l0,0l-0.6-0.8v0l-0.6-0.7l0,0l-0.6-0.8l0,0l-0.6-0.7l0,0l-0.6-0.8l0,0l-0.7-0.8l0,0l-0.6-0.8l0,0l-0.3-0.4
			l-0.4-0.5l-0.3-0.4l-13-15.8c34.2-36.1,102.3-60.7,180.6-60.7C572.2,126.7,639.2,150.4,674,185.4"/>
		<polygon class="st1" points="782.4,17.3 691,147.7 703,159.2 636.2,286.3 649.1,297.5 716,165.5 736.9,168.4 		"/>
		<polygon class="st3" points="766.6,47.1 707.9,154.7 715.9,157.4 		"/>
		<polygon class="st1" points="211.5,17.3 302.9,147.7 290.9,159.2 357.7,286.3 344.8,297.5 277.9,165.5 257,168.4 		"/>
		<polygon class="st3" points="227.4,47.1 286.1,154.7 278,157.4 		"/>
		<path class="st0" d="M668.7,202.5l-48.1,58.4c0,0,47.1,21.2,53.4,28.6v3.2l-26.7-11.9c0,0-3.6,19.2,11.2,26.6
			c14.8,7.4,35.3,0,35.3,0l42.3-50.8c0,0,3.5-15-4.2-22.3C724.2,226.9,668.7,202.5,668.7,202.5"/>
		<path class="st0" d="M322.2,202.5l48.1,58.4c0,0-47.1,21.2-53.4,28.6v3.2l26.7-11.9c0,0,3.6,19.2-11.2,26.6
			c-14.8,7.4-35.3,0-35.3,0l-42.3-50.8c0,0-3.5-15,4.2-22.3C266.7,226.9,322.2,202.5,322.2,202.5"/>
		<path class="st2" d="M326.6,738.3l-0.9,1.1l-14.4-11.9l0.9-1.1l1.5,1.3c1.6,1.3,3.4,1.7,5.4,1c0.9-0.3,2.3-1.5,4.2-3.8l13.7-16.5
			c3.4-4.1,6.4-6.9,9.1-8.5c2.7-1.6,5.9-2.2,9.6-1.8c3.7,0.4,7.6,2.2,11.7,5.6c4.4,3.7,7.2,7.2,8.2,10.7c1,3.4,0.9,6.9-0.3,10.3
			c-0.8,2.3-3.3,5.9-7.3,10.8l-13.2,15.9c-2.1,2.5-3.1,4.4-3,5.8c0,1.4,0.8,2.7,2.4,3.9l1.5,1.3l-0.9,1.1l-17.6-14.6l0.9-1.1
			l1.6,1.3c1.7,1.4,3.3,1.9,4.9,1.4c1.1-0.3,2.6-1.6,4.5-3.9l14.7-17.7c1.3-1.6,2.7-3.5,4.1-5.8c1.4-2.3,2.2-4.3,2.4-6.1
			c0.2-1.8-0.1-3.6-1-5.5c-0.8-1.9-2.3-3.7-4.4-5.5c-2.7-2.2-5.5-3.6-8.6-4.2c-3.1-0.6-5.7-0.3-8,0.9c-2.3,1.2-5.2,3.9-8.8,8.2
			l-13.7,16.5c-2.1,2.5-3.1,4.4-3.1,5.5c0.1,1.5,0.9,2.9,2.4,4.2L326.6,738.3z"/>
		<path class="st2" d="M270.9,672.4l9.9-7.4l0.8,1.2c-1.6,1.5-2.7,2.7-3.2,3.6c-0.8,1.5-1.1,3-1,4.5c0.2,1.5,0.9,3.2,2.1,5l4.2,6.2
			l33.4-22.6c2.7-1.8,4.2-3.2,4.4-4.3c0.4-1.4,0-3-1.2-4.7l-1-1.5l1.2-0.8l12.6,18.6l-1.2,0.8l-1-1.5c-1.3-1.9-2.7-2.8-4.3-2.8
			c-1,0-2.7,0.8-5.2,2.5l-33.4,22.6l3.6,5.3c1.4,2,2.5,3.4,3.4,4c1.2,0.8,2.6,1.3,4.3,1.3c1.7,0,3.6-0.6,5.7-1.8l0.8,1.2l-10.6,6.4
			L270.9,672.4z"/>
		<path class="st2" d="M249.4,614.8l-1.4,0.4l-5.7-17.8l1.4-0.4l0.6,1.9c0.6,2,2,3.2,4,3.8c0.9,0.3,2.8,0,5.6-0.9l20.4-6.5
			c5.1-1.6,9.1-2.4,12.2-2.2c3.1,0.1,6.1,1.3,9,3.6c2.9,2.3,5.2,6,6.8,11c1.8,5.5,2.1,10,1.1,13.4c-1,3.5-2.9,6.3-5.8,8.5
			c-2,1.5-6,3.2-12,5.1l-19.7,6.3c-3.1,1-5,2.1-5.7,3.2c-0.7,1.2-0.7,2.7-0.1,4.6l0.6,1.9l-1.4,0.4l-7-21.8l1.4-0.4l0.6,1.9
			c0.7,2.1,1.8,3.4,3.4,3.8c1.1,0.3,3,0,5.9-0.8l21.9-7c2-0.6,4.1-1.5,6.5-2.7c2.4-1.2,4.2-2.4,5.3-3.8c1.1-1.4,1.8-3.1,2.2-5.2
			c0.4-2.1,0.1-4.4-0.7-7c-1.1-3.3-2.7-6-5-8.1c-2.3-2.1-4.7-3.3-7.2-3.6c-2.5-0.2-6.5,0.5-11.8,2.2l-20.4,6.5c-3.1,1-5,2-5.6,2.9
			c-0.8,1.3-0.9,2.9-0.3,4.8L249.4,614.8z"/>
		<path class="st2" d="M291.3,542.2l-45,19.4l35.3,0.8c3.3,0.1,5.3-0.2,6.1-0.9c1.1-0.9,1.7-2.4,1.7-4.5l0-1.9l1.4,0l-0.4,18.4
			l-1.4,0l0-1.9c0.1-2.2-0.6-3.8-1.9-4.8c-0.8-0.6-2.7-0.9-5.7-1l-34.5-0.8c-2.3-0.1-4,0.2-5.1,0.7c-0.8,0.3-1.4,1-1.9,2
			c-0.5,1-0.8,2.5-0.9,4.7l-1.4,0l0.4-15l41.8-18.2l-40.9-19.8l0.3-15l1.4,0l0,1.8c-0.1,2.3,0.6,3.9,1.9,4.8c0.8,0.6,2.7,0.9,5.7,1
			l34.5,0.8c3.3,0.1,5.3-0.2,6.1-0.9c1.1-0.9,1.7-2.4,1.7-4.5l0-1.8l1.4,0l-0.5,22.5l-1.4,0l0-1.9c0.1-2.3-0.6-3.9-1.9-4.8
			c-0.8-0.6-2.7-0.9-5.7-1l-35.3-0.8l44,21.4L291.3,542.2z"/>
		<path class="st2" d="M301.7,474.1l1.4,0.4l-6.5,21.7l-1.4-0.4l0.5-1.8c0.6-2.1,0.5-3.8-0.5-5.1c-0.6-0.8-2.5-1.7-5.5-2.6
			l-32.7-9.7c-2.6-0.8-4.3-1.1-5.2-1c-0.7,0.1-1.4,0.4-2.1,1.1c-0.9,0.9-1.6,2-1.9,3.2l-0.5,1.8l-1.4-0.4l6.5-21.7l1.4,0.4l-0.5,1.8
			c-0.6,2.1-0.5,3.8,0.5,5.1c0.6,0.9,2.4,1.7,5.5,2.6l32.7,9.7c2.6,0.8,4.3,1.1,5.2,1c0.7-0.1,1.4-0.4,2.1-1.1
			c0.9-0.9,1.6-1.9,1.9-3.1L301.7,474.1z"/>
		<path class="st2" d="M275.2,408l16.1,8.7l-0.7,1.3c-3.3-1.2-6.2-1.8-8.6-1.8c-2.4,0.1-4.7,0.8-6.8,2.2c-2.1,1.4-3.8,3.1-4.9,5.2
			c-1.3,2.4-1.6,4.7-1,7.1c0.6,2.3,1.8,4,3.7,5c1.4,0.8,3,1,4.7,0.6c2.5-0.5,6.6-2.6,12.3-6.4c4.7-3.1,8.1-5.1,10.2-6
			c2.1-0.9,4.2-1.4,6.4-1.3c2.2,0.1,4.2,0.6,6,1.6c3.5,1.9,5.8,4.9,6.9,9c1.1,4.1,0.5,8.3-1.8,12.6c-0.7,1.3-1.5,2.6-2.4,3.6
			c-0.5,0.6-1.7,1.9-3.6,3.7c-1.9,1.8-3,3.1-3.4,3.7c-0.3,0.6-0.4,1.1-0.2,1.6c0.2,0.5,0.7,1.1,1.7,1.9l-0.7,1.3l-16-8.6l0.7-1.3
			c3.7,1.2,6.6,1.7,8.8,1.6c2.2-0.1,4.4-0.9,6.6-2.4c2.2-1.5,4-3.5,5.3-5.9c1.5-2.9,2-5.5,1.4-8c-0.6-2.5-2-4.3-4-5.4
			c-1.1-0.6-2.5-0.9-4-0.9c-1.5,0-3.1,0.4-4.8,1.2c-1.2,0.5-3.9,2.2-8.3,5c-4.4,2.8-7.7,4.7-9.9,5.6c-2.2,1-4.4,1.5-6.5,1.5
			c-2.1,0-4.1-0.5-6-1.5c-3.3-1.8-5.5-4.6-6.6-8.5c-1-3.9-0.5-7.8,1.6-11.7c1.3-2.5,3.3-4.8,6.1-6.9c1.3-1,2-1.7,2.3-2.2
			c0.3-0.6,0.4-1.2,0.3-1.7c-0.2-0.6-0.7-1.3-1.7-2.1L275.2,408z"/>
		<path class="st2" d="M320.5,389.6l17-17.7l-10.9-10.5c-1.9-1.9-3.3-3-4.2-3.3c-0.6-0.3-1.4-0.3-2.3,0c-1.2,0.4-2.3,1-3.1,1.9
			l-1.3,1.3l-1-1l15.7-16.3l1,1l-1.3,1.3c-0.9,0.9-1.5,2-1.8,3.2c-0.3,0.9-0.2,1.7,0.2,2.5c0.4,0.8,1.5,2.1,3.4,3.9l24.6,23.7
			c1.9,1.9,3.3,3,4.2,3.3c0.7,0.3,1.4,0.3,2.3,0c1.2-0.4,2.3-1,3.2-1.9l1.3-1.3l1,1L352.7,397l-1-1l1.3-1.3c1.5-1.5,2.1-3.1,1.9-4.7
			c-0.1-1-1.4-2.7-3.6-4.9l-11.6-11.2l-17,17.7l11.6,11.2c1.9,1.9,3.3,3,4.2,3.3c0.6,0.3,1.4,0.3,2.3,0c1.2-0.4,2.3-1,3.1-1.9
			l1.3-1.4l1,1l-15.7,16.3l-1-1l1.3-1.4c1.5-1.6,2.2-3.1,1.9-4.7c-0.2-1-1.4-2.6-3.7-4.8l-24.6-23.7c-1.9-1.9-3.3-3-4.2-3.3
			c-0.6-0.3-1.4-0.3-2.3,0c-1.2,0.4-2.3,1-3.2,1.9l-1.3,1.3l-1-1l15.7-16.3l1,1l-1.3,1.4c-0.9,0.9-1.5,2-1.8,3.2
			c-0.3,0.9-0.2,1.7,0.2,2.5c0.4,0.8,1.5,2.1,3.4,3.9L320.5,389.6z"/>
		<path class="st2" d="M395.8,362.2l0.8,1.2l-19.1,12.2l-0.8-1.2l1.6-1c1.8-1.2,2.8-2.6,3-4.2c0.1-1-0.7-2.9-2.5-5.6l-18.4-28.8
			c-1.4-2.3-2.5-3.7-3.3-4.2c-0.6-0.4-1.3-0.6-2.3-0.5c-1.3,0.1-2.5,0.5-3.5,1.1l-1.6,1l-0.8-1.2l19.1-12.2l0.8,1.2l-1.6,1
			c-1.8,1.2-2.8,2.5-2.9,4.2c-0.1,1,0.7,2.9,2.4,5.6l18.4,28.7c1.4,2.3,2.5,3.7,3.3,4.2c0.6,0.4,1.3,0.6,2.3,0.5
			c1.3-0.1,2.4-0.5,3.5-1.1L395.8,362.2z"/>
		<path class="st2" d="M571.8,318.8l12.1,24.7c2,4.1,3.8,7,5.6,8.9c1.8,1.8,3.7,3.2,5.8,4.1l-0.5,1.4l-23.8-8.2l0.5-1.4
			c1.4,0.5,2.5,0.6,3.3,0.4c0.8-0.3,1.3-0.7,1.5-1.3c0.2-0.6,0.3-1.2,0.2-1.7c-0.1-0.5-0.5-1.7-1.4-3.4l-11.3-23l-5.6,16.1
			c-0.9,2.5-1.3,4.3-1.3,5.2c0,0.7,0.4,1.4,1,2.1c0.9,1,1.9,1.6,3,2l1.7,0.6l-0.5,1.4l-21.3-7.4l0.5-1.4l1.8,0.6
			c2.1,0.7,3.8,0.6,5.1-0.3c0.9-0.6,1.8-2.4,2.8-5.4l11.2-32.3c0.9-2.5,1.3-4.3,1.3-5.2c0-0.7-0.4-1.4-1-2.1c-0.9-1-1.9-1.7-3.1-2.1
			l-1.8-0.6l0.5-1.4l21.3,7.4L579,298l-1.7-0.6c-1.2-0.4-2.4-0.5-3.6-0.3c-0.9,0.1-1.6,0.5-2.2,1.2c-0.6,0.7-1.3,2.3-2.1,4.7
			l-5.3,15.3c0.7-0.3,2.9-1.3,6.7-2.9c9.6-4.2,15.6-7.1,17.9-8.8c1-0.8,1.6-1.5,1.9-2.2c0.2-0.6,0.1-1.2-0.3-1.8
			c-0.4-0.6-1.2-1.1-2.4-1.6l-1.1-0.4l0.5-1.4l18.3,6.4L605,307c-1.1-0.4-2.1-0.5-3.1-0.6c-1,0-2.2,0.1-3.8,0.4
			c-1.5,0.3-3.6,1-6,2.1c-0.7,0.3-4.1,2-10.1,5L571.8,318.8z"/>
		<path class="st2" d="M691.2,364.7l-0.9,1.1c-1.1-0.9-2.1-1.4-3.1-1.5c-1-0.2-2.2,0.1-3.6,0.6c-1,0.4-3,1.6-6,3.5l-38.2,24l-1.2-1
			l11.8-33.9l-30.5,18.8l-1.1-0.9l15.3-44.1c1.1-3.3,1.8-5.3,1.9-5.9c0.2-1.1,0.1-2.1-0.3-3c-0.4-0.9-1.2-1.9-2.4-2.9l0.9-1.1
			l15.2,12.3l-0.9,1.1l-0.7-0.6c-1.1-0.9-2.1-1.3-3-1.2c-1,0-1.7,0.4-2.3,1.1c-0.6,0.7-1.4,2.7-2.6,6l-10.5,29.6l22.6-14.2l1.6-4.4
			l1.2-3.5c0.4-1.4,0.6-2.6,0.7-3.8c0-0.6,0-1.2-0.2-1.8c-0.2-0.8-0.5-1.4-0.9-2c-0.3-0.4-0.8-1-1.7-1.6l0.9-1.1l16,12.9l-0.9,1.1
			l-1.1-0.9c-1.1-0.9-2.2-1.3-3.1-1.3c-0.9,0.1-1.7,0.5-2.4,1.3c-0.8,1-1.8,3.2-3,6.5l-10.1,28.7l26.1-16.4c2.9-1.8,4.8-3.2,5.5-4.2
			c0.4-0.5,0.6-1,0.6-1.7c0-0.6-0.1-1.2-0.4-1.7c-0.5-0.9-1.4-1.8-2.7-2.8l0.9-1.1L691.2,364.7z"/>
		<path class="st2" d="M690.8,425.7l-11.4-17l-8.9,1.7c-2.2,0.4-3.7,0.9-4.6,1.5c-0.7,0.5-1,1.2-1.1,2.1c-0.1,1,0.5,2.6,1.8,4.8
			l-1.2,0.8l-9.3-13.8l1.2-0.8c1.6,1.6,2.8,2.5,3.7,2.7c1.8,0.4,4.7,0.2,8.8-0.6l46.5-8.7l0.8,1.1l-26.3,39.8
			c-2.1,3.2-3.3,5.6-3.5,7.2c-0.2,1.6,0.2,3.3,1.3,5.2l-1.2,0.8L675.8,435l1.2-0.8c1.3,1.7,2.3,2.7,3.2,3c0.9,0.3,1.7,0.2,2.4-0.3
			c1-0.6,2.2-2.1,3.6-4.3L690.8,425.7z M692.6,423.2l12.8-19.3l-22.9,4.2L692.6,423.2z"/>
		<path class="st2" d="M752.7,615l-1.4-0.2c0.2-1.4,0.1-2.5-0.3-3.4c-0.4-0.9-1.2-1.8-2.4-2.8c-0.8-0.6-2.9-1.7-6.1-3.3l-40.4-20.1
			l0.2-1.5l35.1-7.6l-32-16.2l0.2-1.4l45.6-9.9c3.4-0.7,5.4-1.2,6-1.5c1-0.4,1.9-1,2.5-1.8c0.6-0.8,1-2,1.2-3.5l1.4,0.2l-2.5,19.4
			l-1.4-0.2l0.1-0.9c0.2-1.4,0-2.4-0.5-3.2c-0.5-0.8-1.2-1.3-2.1-1.4c-0.9-0.1-3,0.2-6.4,0.9l-30.8,6.5l23.9,11.9l4.6-1l3.7-0.8
			c1.4-0.4,2.6-0.8,3.6-1.4c0.5-0.3,1-0.6,1.4-1.1c0.6-0.6,1-1.2,1.3-1.8c0.2-0.5,0.4-1.2,0.5-2.3l1.4,0.2l-2.6,20.4l-1.4-0.2
			l0.2-1.4c0.2-1.4,0-2.5-0.5-3.3c-0.5-0.7-1.3-1.2-2.4-1.3c-1.3-0.2-3.7,0.1-7.1,0.8l-29.8,6.4l27.6,13.7c3,1.5,5.2,2.4,6.4,2.6
			c0.6,0.1,1.2,0,1.7-0.3c0.6-0.3,1-0.7,1.3-1.3c0.5-0.9,0.8-2.2,1-3.8l1.4,0.2L752.7,615z"/>
		<path class="st2" d="M731.7,664.6c-3.1,6.1-8.2,10.2-15.1,12.3c-6.9,2.1-13.9,1.3-20.8-2.2c-7.1-3.7-11.9-9-14.3-15.9
			c-2.4-6.9-1.9-13.6,1.4-20c3.3-6.5,8.4-10.7,15.3-12.8c6.9-2,13.9-1.2,21.2,2.6c7.5,3.8,12.2,9.5,14.3,17
			C735.6,652.1,734.9,658.5,731.7,664.6 M729.5,662.6c2.2-4.2,2.3-8.4,0.5-12.5c-2.3-5.2-7.1-9.7-14.6-13.5
			c-7.7-3.9-14.4-5.3-20.2-4.2c-4.4,0.9-7.7,3.4-9.9,7.6c-2.3,4.4-2.4,8.9-0.5,13.6c2,4.6,6.6,8.9,14.1,12.7
			c8,4.1,14.9,5.6,20.4,4.5C723.9,669.8,727.2,667.1,729.5,662.6"/>
		<path class="st2" d="M673.1,739.7l-9.4-8.1l1-1.1c1.8,1.3,3.2,2.1,4.2,2.4c1.6,0.5,3.2,0.4,4.6,0c1.4-0.5,2.9-1.5,4.4-3.1l5.1-5.4
			l-29.3-27.8c-2.4-2.2-4.1-3.4-5.1-3.4c-1.5,0-2.9,0.7-4.3,2.2l-1.3,1.3l-1-1l15.4-16.3l1.1,1l-1.3,1.4c-1.5,1.6-2.1,3.2-1.8,4.8
			c0.2,1,1.4,2.5,3.5,4.5l29.3,27.8l4.4-4.6c1.7-1.8,2.8-3.2,3.2-4.2c0.6-1.3,0.7-2.8,0.3-4.5c-0.4-1.7-1.3-3.4-3-5.2l1-1.1l8.6,9
			L673.1,739.7z"/>
		<path class="st2" d="M639.9,760.5L629,742.7l-9.9,6.1c-2.6,1.6-4.1,3-4.4,4.3c-0.5,1.7-0.1,3.9,1.4,6.6l-1.2,0.8l-9.6-15.7
			l1.2-0.7c1.7,2,2.8,3.2,3.5,3.7c0.9,0.5,1.9,0.7,3.1,0.6c1.2-0.1,2.7-0.7,4.6-1.9l9.9-6.1l-9.1-14.9c-1.2-2-2-3.1-2.5-3.5
			c-0.4-0.3-1-0.5-1.6-0.5c-0.6,0-1.5,0.4-2.8,1.2l-7.6,4.7c-2.6,1.6-4.3,2.9-5.2,3.9c-0.9,1.1-1.6,2.4-2,4.1
			c-0.5,2.2-0.7,5.1-0.4,8.8L595,745l-3-13.7l34.8-21.2l0.8,1.2l-1.6,1c-1.1,0.6-1.9,1.5-2.6,2.6c-0.5,0.8-0.6,1.6-0.5,2.5
			c0.2,0.9,0.9,2.4,2.3,4.6l17.9,29.3c1.7,2.9,3.1,4.4,4.1,4.8c1.3,0.4,2.9,0,4.8-1.1l1.6-1l0.8,1.2l-34.8,21.2l-6.5-9.6l1.3-0.8
			c1.9,2.1,3.4,3.4,4.5,3.9c1.1,0.5,2.4,0.7,3.8,0.5c1.1-0.2,2.8-1,5-2.4L639.9,760.5z"/>
		<path class="st2" d="M505,786.2c0,7.7-6.2,14-14,14c-7.7,0-14-6.2-14-14c0-7.7,6.2-14,14-14C498.8,772.2,505,778.5,505,786.2"/>
		<polygon class="st1" points="328.3,203.3 328,203.6 327.7,203.2 		"/>
		<polygon class="st1" points="662.4,199.5 662,199.1 662.4,199.5 661.7,200.4 661.2,200.1 661.6,200.5 660.8,201.5 660.3,201.1 
			660.8,201.5 660,202.5 659.5,202.1 659.9,202.5 659.2,203.4 658.7,203.1 659.2,203.5 658.3,204.5 657.9,204.1 658.3,204.5 
			657.5,205.5 657,205.2 657.4,205.6 656.3,206.9 649.7,210.1 645.2,197.5 633.1,203.1 628.3,190.7 616.3,196.7 611.1,184.3 
			599.3,190.6 593.8,178.4 582.2,185.1 576.2,173.1 564.9,180.2 558.4,168.4 547.4,176 540.4,164.5 529.7,172.6 522.1,161.6 
			512,170.4 503.6,160.1 494.4,169.9 484.9,160.5 476.8,171.1 466.5,162.5 459.2,173.6 448.4,165.7 441.8,177.3 430.6,170 
			424.4,181.9 413,175 407.4,187.2 395.6,180.8 390.5,193.2 378.5,187.2 373.7,199.7 361.5,194.2 357.2,206.8 344.9,201.7 
			341,214.5 334.7,211.8 333.7,210.5 334,210.2 333.6,210.4 333,209.6 333.3,209.3 333,209.6 332.3,208.9 332.6,208.6 332.3,208.8 
			331.6,208 331.9,207.7 331.6,208 331,207.2 331.3,206.9 331,207.2 330.3,206.4 330.6,206.1 330.3,206.3 329.6,205.5 329.9,205.2 
			329.5,205.5 328.9,204.7 329.2,204.4 328.8,204.6 328.5,204.2 334.9,205.7 338.5,192.5 351.4,196.9 355.6,183.9 368.3,188.8 
			373.1,176 385.6,181.5 390.9,168.9 403.1,174.9 409,162.5 421,169.1 427.4,157.1 439,164.3 446.2,152.6 457.4,160.6 465.2,149.4 
			475.8,158.1 484.6,147.6 494.3,157.1 504,147.4 513.1,157.7 523.5,148.7 531.8,159.6 542.7,151.2 550.4,162.6 561.8,154.9 
			568.8,166.7 580.6,159.6 587,171.7 599.1,165.1 605.1,177.5 617.4,171.6 622.8,184.2 635.3,178.8 640.2,191.6 653,186.7 
			657.2,199.7 662.9,198.2 663.2,198.5 		"/>
		<polygon class="st1" points="663.3,198.5 662.9,198.2 662.9,198.2 663.7,198 		"/>
		<polygon class="st1" points="664,197.5 663.6,197.1 664.5,197.1 		"/>
		<polygon class="st1" points="656.5,217.3 657.2,219.5 660,227.9 676.3,227.9 678.8,239 694.1,242 694.1,249.2 707.9,249.2 
			706.8,256.6 721.5,256.6 717.7,266 725.6,269.1 711.6,285.9 712.9,276.2 704.7,275.7 707.9,268 694.1,268.5 696.5,258.5 
			685.9,260.9 685.5,248.2 672.4,251.6 667.8,240.1 656.5,241 648.3,227.3 		"/>
		<polygon class="st1" points="337.5,220.9 336.8,223 334,231.5 317.7,231.5 315.2,242.5 299.9,245.5 299.9,252.7 286.1,252.7 
			287.2,260.2 272.4,260.2 276.3,269.6 268.3,272.7 282.3,289.5 281.1,279.7 289.3,279.2 286.1,271.5 299.9,272 297.5,262.1 
			308.1,264.5 308.5,251.8 321.6,255.2 326.2,243.6 337.5,244.6 345.6,230.8 		"/>
		<polyline class="st1" points="656.5,241 648.3,227.3 656.5,217.3 		"/>
	</g>
</g>
</svg>
